<mxfile host="app.diagrams.net" agent="Mozilla/5.0 (Windows NT 10.0; Win64; x64) AppleWebKit/537.36 (KHTML, like Gecko) Chrome/135.0.0.0 Safari/537.36 Edg/135.0.0.0" version="26.2.4">
  <diagram id="T3Aq8Ej9-T60JYjWBcn1" name="Infra">
    <mxGraphModel dx="1042" dy="2766" grid="1" gridSize="10" guides="1" tooltips="1" connect="1" arrows="1" fold="1" page="1" pageScale="1" pageWidth="850" pageHeight="1100" math="0" shadow="0">
      <root>
        <mxCell id="0" />
        <mxCell id="1" parent="0" />
        <mxCell id="46bVN9EJpbRJehnhC0O4-1" value="AWS Cloud" style="points=[[0,0],[0.25,0],[0.5,0],[0.75,0],[1,0],[1,0.25],[1,0.5],[1,0.75],[1,1],[0.75,1],[0.5,1],[0.25,1],[0,1],[0,0.75],[0,0.5],[0,0.25]];outlineConnect=0;gradientColor=none;html=1;whiteSpace=wrap;fontSize=12;fontStyle=0;container=0;pointerEvents=0;collapsible=0;recursiveResize=0;shape=mxgraph.aws4.group;grIcon=mxgraph.aws4.group_aws_cloud_alt;strokeColor=#232F3E;fillColor=none;verticalAlign=top;align=left;spacingLeft=30;fontColor=#232F3E;dashed=0;" vertex="1" parent="1">
          <mxGeometry x="200" y="-1275" width="920" height="1105" as="geometry" />
        </mxCell>
        <mxCell id="46bVN9EJpbRJehnhC0O4-26" style="edgeStyle=orthogonalEdgeStyle;rounded=0;orthogonalLoop=1;jettySize=auto;html=1;" edge="1" parent="1" source="46bVN9EJpbRJehnhC0O4-17" target="46bVN9EJpbRJehnhC0O4-18">
          <mxGeometry relative="1" as="geometry" />
        </mxCell>
        <mxCell id="46bVN9EJpbRJehnhC0O4-17" value="CÃ¢mera" style="sketch=0;outlineConnect=0;fontColor=#232F3E;gradientColor=none;fillColor=#232F3D;strokeColor=none;dashed=0;verticalLabelPosition=bottom;verticalAlign=top;align=center;html=1;fontSize=12;fontStyle=0;aspect=fixed;pointerEvents=1;shape=mxgraph.aws4.camera2;" vertex="1" parent="1">
          <mxGeometry x="564.255" y="-1410" width="62.89" height="50" as="geometry" />
        </mxCell>
        <mxCell id="46bVN9EJpbRJehnhC0O4-21" value="VPC" style="points=[[0,0],[0.25,0],[0.5,0],[0.75,0],[1,0],[1,0.25],[1,0.5],[1,0.75],[1,1],[0.75,1],[0.5,1],[0.25,1],[0,1],[0,0.75],[0,0.5],[0,0.25]];outlineConnect=0;gradientColor=none;html=1;whiteSpace=wrap;fontSize=12;fontStyle=0;container=0;pointerEvents=0;collapsible=0;recursiveResize=0;shape=mxgraph.aws4.group;grIcon=mxgraph.aws4.group_vpc2;strokeColor=#8C4FFF;fillColor=none;verticalAlign=top;align=left;spacingLeft=30;fontColor=#AAB7B8;dashed=0;" vertex="1" parent="1">
          <mxGeometry x="220" y="-1030" width="890" height="850" as="geometry" />
        </mxCell>
        <mxCell id="46bVN9EJpbRJehnhC0O4-58" style="edgeStyle=orthogonalEdgeStyle;rounded=0;orthogonalLoop=1;jettySize=auto;html=1;" edge="1" parent="1" source="46bVN9EJpbRJehnhC0O4-25" target="46bVN9EJpbRJehnhC0O4-19">
          <mxGeometry relative="1" as="geometry" />
        </mxCell>
        <mxCell id="46bVN9EJpbRJehnhC0O4-25" value="Route Table" style="outlineConnect=0;dashed=0;verticalLabelPosition=bottom;verticalAlign=top;align=center;html=1;shape=mxgraph.aws3.route_table;fillColor=#F58536;gradientColor=none;" vertex="1" parent="1">
          <mxGeometry x="561.8950000000001" y="-1190" width="70.11" height="64.5" as="geometry" />
        </mxCell>
        <mxCell id="46bVN9EJpbRJehnhC0O4-27" style="edgeStyle=orthogonalEdgeStyle;rounded=0;orthogonalLoop=1;jettySize=auto;html=1;" edge="1" parent="1" source="46bVN9EJpbRJehnhC0O4-18" target="46bVN9EJpbRJehnhC0O4-25">
          <mxGeometry relative="1" as="geometry" />
        </mxCell>
        <mxCell id="46bVN9EJpbRJehnhC0O4-18" value="Internet" style="shape=image;html=1;verticalAlign=top;verticalLabelPosition=bottom;labelBackgroundColor=#ffffff;imageAspect=0;aspect=fixed;image=https://cdn1.iconfinder.com/data/icons/ui-essential-17/32/UI_Essential_Outline_1_essential-app-ui-internet-word-128.png" vertex="1" parent="1">
          <mxGeometry x="571" y="-1300" width="50" height="50" as="geometry" />
        </mxCell>
        <mxCell id="46bVN9EJpbRJehnhC0O4-22" value="Private subnet" style="points=[[0,0],[0.25,0],[0.5,0],[0.75,0],[1,0],[1,0.25],[1,0.5],[1,0.75],[1,1],[0.75,1],[0.5,1],[0.25,1],[0,1],[0,0.75],[0,0.5],[0,0.25]];outlineConnect=0;gradientColor=none;html=1;whiteSpace=wrap;fontSize=12;fontStyle=0;container=1;pointerEvents=0;collapsible=0;recursiveResize=0;shape=mxgraph.aws4.group;grIcon=mxgraph.aws4.group_security_group;grStroke=0;strokeColor=#004C99;fillColor=#CCE5FF;verticalAlign=top;align=left;spacingLeft=30;fontColor=#147EBA;dashed=0;" vertex="1" parent="1">
          <mxGeometry x="240" y="-800" width="730" height="610" as="geometry" />
        </mxCell>
        <mxCell id="46bVN9EJpbRJehnhC0O4-33" value="Availability zone: east-1b" style="sketch=0;outlineConnect=0;html=1;whiteSpace=wrap;fontSize=12;fontStyle=0;shape=mxgraph.aws4.group;grIcon=mxgraph.aws4.group_availability_zone;strokeColor=#23445d;fillColor=#C6D7E3;verticalAlign=top;align=left;spacingLeft=30;dashed=1;" vertex="1" parent="46bVN9EJpbRJehnhC0O4-22">
          <mxGeometry x="550" y="60" width="180" height="550" as="geometry" />
        </mxCell>
        <mxCell id="46bVN9EJpbRJehnhC0O4-24" value="Availability zone: east-1a" style="sketch=0;outlineConnect=0;html=1;whiteSpace=wrap;fontSize=12;fontStyle=0;shape=mxgraph.aws4.group;grIcon=mxgraph.aws4.group_availability_zone;strokeColor=#23445d;fillColor=#C6D7E3;verticalAlign=top;align=left;spacingLeft=30;dashed=1;" vertex="1" parent="46bVN9EJpbRJehnhC0O4-22">
          <mxGeometry y="60" width="180" height="550" as="geometry" />
        </mxCell>
        <mxCell id="46bVN9EJpbRJehnhC0O4-34" value="ECS Cluster" style="points=[[0,0],[0.25,0],[0.5,0],[0.75,0],[1,0],[1,0.25],[1,0.5],[1,0.75],[1,1],[0.75,1],[0.5,1],[0.25,1],[0,1],[0,0.75],[0,0.5],[0,0.25]];outlineConnect=0;gradientColor=none;html=1;whiteSpace=wrap;fontSize=12;fontStyle=0;container=1;pointerEvents=0;collapsible=0;recursiveResize=0;shape=mxgraph.aws4.group;grIcon=mxgraph.aws4.group_elastic_beanstalk;strokeColor=#D86613;fillColor=none;verticalAlign=top;align=left;spacingLeft=30;fontColor=#D86613;dashed=0;" vertex="1" parent="46bVN9EJpbRJehnhC0O4-22">
          <mxGeometry x="20" y="190" width="680" height="200" as="geometry" />
        </mxCell>
        <mxCell id="46bVN9EJpbRJehnhC0O4-36" value="AWS Fargate" style="sketch=0;outlineConnect=0;fontColor=#232F3E;gradientColor=none;strokeColor=#ffffff;fillColor=#F58534;dashed=0;verticalLabelPosition=middle;verticalAlign=bottom;align=center;html=1;whiteSpace=wrap;fontSize=10;fontStyle=1;spacing=3;shape=mxgraph.aws4.productIcon;prIcon=mxgraph.aws4.fargate;aspect=fixed;" vertex="1" parent="46bVN9EJpbRJehnhC0O4-34">
          <mxGeometry x="300" y="75" width="66" height="79.74" as="geometry" />
        </mxCell>
        <mxCell id="46bVN9EJpbRJehnhC0O4-39" style="edgeStyle=orthogonalEdgeStyle;rounded=0;orthogonalLoop=1;jettySize=auto;html=1;" edge="1" parent="46bVN9EJpbRJehnhC0O4-22" source="46bVN9EJpbRJehnhC0O4-29" target="46bVN9EJpbRJehnhC0O4-37">
          <mxGeometry relative="1" as="geometry">
            <Array as="points">
              <mxPoint x="352" y="160" />
              <mxPoint x="90" y="160" />
            </Array>
          </mxGeometry>
        </mxCell>
        <mxCell id="46bVN9EJpbRJehnhC0O4-40" style="edgeStyle=orthogonalEdgeStyle;rounded=0;orthogonalLoop=1;jettySize=auto;html=1;" edge="1" parent="46bVN9EJpbRJehnhC0O4-22" source="46bVN9EJpbRJehnhC0O4-29" target="46bVN9EJpbRJehnhC0O4-38">
          <mxGeometry relative="1" as="geometry">
            <Array as="points">
              <mxPoint x="352" y="160" />
              <mxPoint x="626" y="160" />
            </Array>
          </mxGeometry>
        </mxCell>
        <mxCell id="46bVN9EJpbRJehnhC0O4-43" value="EC2 instance" style="points=[[0,0],[0.25,0],[0.5,0],[0.75,0],[1,0],[1,0.25],[1,0.5],[1,0.75],[1,1],[0.75,1],[0.5,1],[0.25,1],[0,1],[0,0.75],[0,0.5],[0,0.25]];outlineConnect=0;gradientColor=none;html=1;whiteSpace=wrap;fontSize=12;fontStyle=0;container=1;pointerEvents=0;collapsible=0;recursiveResize=0;shape=mxgraph.aws4.group;grIcon=mxgraph.aws4.group_ec2_instance_contents;strokeColor=#D86613;fillColor=none;verticalAlign=top;align=left;spacingLeft=30;fontColor=#D86613;dashed=0;" vertex="1" parent="46bVN9EJpbRJehnhC0O4-22">
          <mxGeometry x="20" y="460" width="140" height="130" as="geometry" />
        </mxCell>
        <mxCell id="46bVN9EJpbRJehnhC0O4-45" value="&lt;span&gt;Database&lt;/span&gt;" style="image;aspect=fixed;html=1;points=[];align=center;fontSize=12;image=img/lib/azure2/databases/Azure_Database_PostgreSQL_Server.svg;labelBackgroundColor=none;" vertex="1" parent="46bVN9EJpbRJehnhC0O4-43">
          <mxGeometry x="46" y="40" width="48" height="64" as="geometry" />
        </mxCell>
        <mxCell id="46bVN9EJpbRJehnhC0O4-29" value="Elastic Load Balancing" style="sketch=0;outlineConnect=0;fontColor=#232F3E;gradientColor=none;strokeColor=#ffffff;fillColor=#F58534;dashed=0;verticalLabelPosition=middle;verticalAlign=bottom;align=center;html=1;whiteSpace=wrap;fontSize=10;fontStyle=1;spacing=3;shape=mxgraph.aws4.productIcon;prIcon=mxgraph.aws4.elastic_load_balancing;aspect=fixed;" vertex="1" parent="46bVN9EJpbRJehnhC0O4-22">
          <mxGeometry x="323.275" y="40" width="63" height="89.52" as="geometry" />
        </mxCell>
        <mxCell id="46bVN9EJpbRJehnhC0O4-76" style="edgeStyle=orthogonalEdgeStyle;rounded=0;orthogonalLoop=1;jettySize=auto;html=1;endArrow=none;startFill=0;" edge="1" parent="46bVN9EJpbRJehnhC0O4-22" source="46bVN9EJpbRJehnhC0O4-37" target="46bVN9EJpbRJehnhC0O4-36">
          <mxGeometry relative="1" as="geometry" />
        </mxCell>
        <mxCell id="46bVN9EJpbRJehnhC0O4-37" value="Backend" style="sketch=0;outlineConnect=0;fontColor=#232F3E;gradientColor=none;fillColor=#ED7100;strokeColor=none;dashed=0;verticalLabelPosition=bottom;verticalAlign=top;align=center;html=1;fontSize=12;fontStyle=0;aspect=fixed;pointerEvents=1;shape=mxgraph.aws4.container_1;" vertex="1" parent="46bVN9EJpbRJehnhC0O4-22">
          <mxGeometry x="66" y="289.5" width="48" height="31" as="geometry" />
        </mxCell>
        <mxCell id="46bVN9EJpbRJehnhC0O4-77" style="edgeStyle=orthogonalEdgeStyle;rounded=0;orthogonalLoop=1;jettySize=auto;html=1;endArrow=none;startFill=0;" edge="1" parent="46bVN9EJpbRJehnhC0O4-22" source="46bVN9EJpbRJehnhC0O4-38" target="46bVN9EJpbRJehnhC0O4-36">
          <mxGeometry relative="1" as="geometry" />
        </mxCell>
        <mxCell id="46bVN9EJpbRJehnhC0O4-38" value="Backend" style="sketch=0;outlineConnect=0;fontColor=#232F3E;gradientColor=none;fillColor=#ED7100;strokeColor=none;dashed=0;verticalLabelPosition=bottom;verticalAlign=top;align=center;html=1;fontSize=12;fontStyle=0;aspect=fixed;pointerEvents=1;shape=mxgraph.aws4.container_1;" vertex="1" parent="46bVN9EJpbRJehnhC0O4-22">
          <mxGeometry x="601.5" y="289.5" width="48" height="31" as="geometry" />
        </mxCell>
        <mxCell id="46bVN9EJpbRJehnhC0O4-78" style="edgeStyle=orthogonalEdgeStyle;rounded=0;orthogonalLoop=1;jettySize=auto;html=1;entryX=1;entryY=0.5;entryDx=0;entryDy=0;" edge="1" parent="46bVN9EJpbRJehnhC0O4-22" source="46bVN9EJpbRJehnhC0O4-36" target="46bVN9EJpbRJehnhC0O4-43">
          <mxGeometry relative="1" as="geometry">
            <mxPoint x="360" y="348" as="sourcePoint" />
            <mxPoint x="170" y="525" as="targetPoint" />
            <Array as="points">
              <mxPoint x="340" y="525" />
            </Array>
          </mxGeometry>
        </mxCell>
        <mxCell id="46bVN9EJpbRJehnhC0O4-79" value="Amazon S3" style="sketch=0;outlineConnect=0;fontColor=#232F3E;gradientColor=none;strokeColor=#ffffff;fillColor=#006600;dashed=0;verticalLabelPosition=middle;verticalAlign=bottom;align=center;html=1;whiteSpace=wrap;fontSize=10;fontStyle=1;spacing=3;shape=mxgraph.aws4.productIcon;prIcon=mxgraph.aws4.s3;" vertex="1" parent="46bVN9EJpbRJehnhC0O4-22">
          <mxGeometry x="386.27" y="470" width="72" height="90" as="geometry" />
        </mxCell>
        <mxCell id="46bVN9EJpbRJehnhC0O4-80" style="edgeStyle=orthogonalEdgeStyle;rounded=0;orthogonalLoop=1;jettySize=auto;html=1;" edge="1" parent="46bVN9EJpbRJehnhC0O4-22" source="46bVN9EJpbRJehnhC0O4-36" target="46bVN9EJpbRJehnhC0O4-79">
          <mxGeometry relative="1" as="geometry">
            <Array as="points">
              <mxPoint x="353" y="505" />
            </Array>
          </mxGeometry>
        </mxCell>
        <mxCell id="46bVN9EJpbRJehnhC0O4-64" style="edgeStyle=orthogonalEdgeStyle;rounded=0;orthogonalLoop=1;jettySize=auto;html=1;" edge="1" parent="1" source="46bVN9EJpbRJehnhC0O4-19" target="46bVN9EJpbRJehnhC0O4-3">
          <mxGeometry relative="1" as="geometry" />
        </mxCell>
        <mxCell id="46bVN9EJpbRJehnhC0O4-19" value="Internet Gateway" style="outlineConnect=0;dashed=0;verticalLabelPosition=bottom;verticalAlign=top;align=center;html=1;shape=mxgraph.aws3.internet_gateway;fillColor=#F58534;gradientColor=none;" vertex="1" parent="1">
          <mxGeometry x="564.855" y="-1060" width="62.29" height="65" as="geometry" />
        </mxCell>
        <mxCell id="46bVN9EJpbRJehnhC0O4-14" value="Amazon SQS" style="sketch=0;outlineConnect=0;fontColor=#232F3E;gradientColor=none;strokeColor=#ffffff;fillColor=#E7157B;dashed=0;verticalLabelPosition=middle;verticalAlign=bottom;align=center;html=1;whiteSpace=wrap;fontSize=10;fontStyle=1;spacing=3;shape=mxgraph.aws4.productIcon;prIcon=mxgraph.aws4.sqs;" vertex="1" parent="1">
          <mxGeometry x="1001" y="-490" width="71" height="90" as="geometry" />
        </mxCell>
        <mxCell id="46bVN9EJpbRJehnhC0O4-47" value="Amazon CloudWatch" style="sketch=0;outlineConnect=0;fontColor=#232F3E;gradientColor=none;strokeColor=#ffffff;fillColor=#E7157B;dashed=0;verticalLabelPosition=middle;verticalAlign=bottom;align=center;html=1;whiteSpace=wrap;fontSize=10;fontStyle=1;spacing=3;shape=mxgraph.aws4.productIcon;prIcon=mxgraph.aws4.cloudwatch;aspect=fixed;" vertex="1" parent="1">
          <mxGeometry x="1000" y="-640" width="72" height="99.03" as="geometry" />
        </mxCell>
        <mxCell id="46bVN9EJpbRJehnhC0O4-61" style="edgeStyle=orthogonalEdgeStyle;rounded=0;orthogonalLoop=1;jettySize=auto;html=1;" edge="1" parent="1" source="46bVN9EJpbRJehnhC0O4-3" target="46bVN9EJpbRJehnhC0O4-29">
          <mxGeometry relative="1" as="geometry">
            <Array as="points">
              <mxPoint x="590" y="-830" />
              <mxPoint x="590" y="-830" />
            </Array>
          </mxGeometry>
        </mxCell>
        <mxCell id="46bVN9EJpbRJehnhC0O4-81" style="edgeStyle=orthogonalEdgeStyle;rounded=0;orthogonalLoop=1;jettySize=auto;html=1;" edge="1" parent="1" source="46bVN9EJpbRJehnhC0O4-3" target="46bVN9EJpbRJehnhC0O4-6">
          <mxGeometry relative="1" as="geometry">
            <Array as="points">
              <mxPoint x="610" y="-820" />
              <mxPoint x="896" y="-820" />
            </Array>
          </mxGeometry>
        </mxCell>
        <mxCell id="46bVN9EJpbRJehnhC0O4-3" value="Amazon S3" style="sketch=0;outlineConnect=0;fontColor=#232F3E;gradientColor=none;strokeColor=#ffffff;fillColor=#006600;dashed=0;verticalLabelPosition=middle;verticalAlign=bottom;align=center;html=1;whiteSpace=wrap;fontSize=10;fontStyle=1;spacing=3;shape=mxgraph.aws4.productIcon;prIcon=mxgraph.aws4.s3;" vertex="1" parent="1">
          <mxGeometry x="560.9499999999999" y="-940" width="72" height="90" as="geometry" />
        </mxCell>
        <mxCell id="46bVN9EJpbRJehnhC0O4-70" style="edgeStyle=orthogonalEdgeStyle;rounded=0;orthogonalLoop=1;jettySize=auto;html=1;" edge="1" parent="1" source="46bVN9EJpbRJehnhC0O4-6" target="46bVN9EJpbRJehnhC0O4-3">
          <mxGeometry relative="1" as="geometry" />
        </mxCell>
        <mxCell id="46bVN9EJpbRJehnhC0O4-6" value="AWS Lambda" style="sketch=0;outlineConnect=0;fontColor=#232F3E;gradientColor=none;strokeColor=#ffffff;fillColor=#ED7100;dashed=0;verticalLabelPosition=middle;verticalAlign=bottom;align=center;html=1;whiteSpace=wrap;fontSize=10;fontStyle=1;spacing=3;shape=mxgraph.aws4.productIcon;prIcon=mxgraph.aws4.lambda;aspect=fixed;" vertex="1" parent="1">
          <mxGeometry x="860" y="-940" width="72" height="90" as="geometry" />
        </mxCell>
        <mxCell id="ja_oGYEizpMWT8PZuXFo-3" value="Amazon SNS" style="sketch=0;outlineConnect=0;fontColor=#232F3E;gradientColor=none;strokeColor=#ffffff;fillColor=#E7157B;dashed=0;verticalLabelPosition=middle;verticalAlign=bottom;align=center;html=1;whiteSpace=wrap;fontSize=10;fontStyle=1;spacing=3;shape=mxgraph.aws4.productIcon;prIcon=mxgraph.aws4.sns;" vertex="1" parent="1">
          <mxGeometry x="1000" y="-350" width="71" height="90" as="geometry" />
        </mxCell>
      </root>
    </mxGraphModel>
  </diagram>
</mxfile>
